<svg width="70" height="70" viewBox="0 0 70 70" fill="none" xmlns="http://www.w3.org/2000/svg">
<path d="M62.3438 64.5312C62.3438 65.1114 62.1133 65.6678 61.703 66.078C61.2928 66.4883 60.7364 66.7188 60.1562 66.7188H55.7812V64.5312H9.84375V66.7188H5.46875C4.88859 66.7188 4.33219 66.4883 3.92195 66.078C3.51172 65.6678 3.28125 65.1114 3.28125 64.5312V5.46875C3.28125 4.88859 3.51172 4.33219 3.92195 3.92195C4.33219 3.51172 4.88859 3.28125 5.46875 3.28125H60.1562C60.7364 3.28125 61.2928 3.51172 61.703 3.92195C62.1133 4.33219 62.3438 4.88859 62.3438 5.46875V64.5312Z" stroke="#866A42" stroke-width="1.4" stroke-linecap="round" stroke-linejoin="round"/>
<path d="M49.2188 9.84375H9.84375V55.7812H49.2188M66.7188 18.5938V47.0312M9.84375 25.1562H49.2188M9.84375 40.4688H49.2188M53.5938 53.5938H57.9688V55.7812H62.3438V9.84375H57.9688V12.0312H53.5938V53.5938ZM62.3438 29.5312H66.7188V36.0938H62.3438V29.5312Z" stroke="#866A42" stroke-width="1.4" stroke-linecap="round" stroke-linejoin="round"/>
<path d="M27.3438 25.1562H14.2188L16.4062 16.4062H25.1562L27.3438 25.1562ZM44.8438 25.1562H31.7188L33.9062 16.4062H42.6562L44.8438 25.1562ZM27.3438 40.4688H14.2188L16.4062 31.7188H25.1562L27.3438 40.4688ZM44.8438 40.4688H31.7188L33.9062 31.7188H42.6562L44.8438 40.4688ZM27.3438 55.7812H14.2188L16.4062 47.0312H25.1562L27.3438 55.7812ZM44.8438 55.7812H31.7188L33.9062 47.0312H42.6562L44.8438 55.7812Z" stroke="#866A42" stroke-width="1.4" stroke-linecap="round" stroke-linejoin="round"/>
</svg>
