<svg width="146" height="91" viewBox="0 0 146 91" fill="none" xmlns="http://www.w3.org/2000/svg">
<path d="M92.7154 43.7499H49.996C49.3005 43.7499 48.7188 43.1808 48.7188 42.4853V40.1963C48.7188 39.5007 49.2878 38.9316 49.996 38.9316H92.7154C93.411 38.9316 93.98 39.5007 93.98 40.1963V42.4853C93.98 43.1808 93.411 43.7499 92.7154 43.7499ZM49.996 39.9307C49.8569 39.9307 49.7431 40.0445 49.7431 40.1836V42.4726C49.7431 42.6117 49.8569 42.7255 49.996 42.7255H92.7154C92.8545 42.7255 92.9683 42.6117 92.9683 42.4726V40.1836C92.9683 40.0445 92.8545 39.9307 92.7154 39.9307H49.996Z" fill="#106B3E"/>
<path d="M92.7154 18.5712H49.996C49.3005 18.5712 48.7188 18.0021 48.7188 17.3066V15.0176C48.7188 14.322 49.2878 13.7529 49.996 13.7529H92.7154C93.411 13.7529 93.98 14.322 93.98 15.0176V17.3066C93.98 18.0021 93.411 18.5712 92.7154 18.5712ZM49.996 14.752C49.8569 14.752 49.7431 14.8658 49.7431 15.0049V17.2939C49.7431 17.433 49.8569 17.5468 49.996 17.5468H92.7154C92.8545 17.5468 92.9683 17.433 92.9683 17.2939V15.0049C92.9683 14.8658 92.8545 14.752 92.7154 14.752H49.996Z" fill="#106B3E"/>
<path d="M59.1472 39.9311H51.5215C51.2433 39.9311 51.0156 39.7035 51.0156 39.4252V37.1363C51.0156 36.4407 51.5847 35.8716 52.2803 35.8716C52.4194 35.8716 52.5332 35.7578 52.5332 35.6187V21.8848C52.5332 21.7456 52.4194 21.6318 52.2803 21.6318C52.002 21.6318 51.7744 21.4042 51.7744 21.126C51.7744 20.8478 52.002 20.6201 52.2803 20.6201C52.9758 20.6201 53.5575 21.1892 53.5575 21.8848V35.6187C53.5575 36.3142 52.9885 36.8833 52.2803 36.8833C52.1412 36.8833 52.0273 36.9971 52.0273 37.1363V38.9194H58.6414V37.1363C58.6414 36.9971 58.5276 36.8833 58.3884 36.8833C57.6929 36.8833 57.1112 36.3142 57.1112 35.6187V21.8848C57.1112 21.1892 57.6803 20.6201 58.3884 20.6201C58.6667 20.6201 58.8943 20.8478 58.8943 21.126C58.8943 21.4042 58.6667 21.6318 58.3884 21.6318C58.2493 21.6318 58.1355 21.7456 58.1355 21.8848V35.6187C58.1355 35.7578 58.2493 35.8716 58.3884 35.8716C59.084 35.8716 59.6531 36.4407 59.6531 37.1363V39.4252C59.6531 39.7035 59.4255 39.9311 59.1472 39.9311Z" fill="#106B3E"/>
<path d="M75.1707 39.9311H67.5449C67.2667 39.9311 67.0391 39.7035 67.0391 39.4252V37.1363C67.0391 36.4407 67.6081 35.8716 68.3037 35.8716C68.4428 35.8716 68.5566 35.7578 68.5566 35.6187V21.8848C68.5566 21.7456 68.4428 21.6318 68.3037 21.6318C68.0255 21.6318 67.7978 21.4042 67.7978 21.126C67.7978 20.8478 68.0255 20.6201 68.3037 20.6201C68.9992 20.6201 69.581 21.1892 69.581 21.8848V35.6187C69.581 36.3142 69.0119 36.8833 68.3037 36.8833C68.1646 36.8833 68.0508 36.9971 68.0508 37.1363V38.9194H74.6648V37.1363C74.6648 36.9971 74.551 36.8833 74.4119 36.8833C73.7163 36.8833 73.1473 36.3142 73.1473 35.6187V21.8848C73.1473 21.1892 73.7163 20.6201 74.4119 20.6201C74.6901 20.6201 74.9177 20.8478 74.9177 21.126C74.9177 21.4042 74.6901 21.6318 74.4119 21.6318C74.2728 21.6318 74.159 21.7456 74.159 21.8848V35.6187C74.159 35.7578 74.2728 35.8716 74.4119 35.8716C75.1074 35.8716 75.6765 36.4407 75.6765 37.1363V39.4252C75.6765 39.7035 75.4489 39.9311 75.1707 39.9311Z" fill="#106B3E"/>
<path d="M91.1863 39.9311H83.5605C83.2823 39.9311 83.0547 39.7035 83.0547 39.4252V37.1363C83.0547 36.4407 83.6238 35.8716 84.332 35.8716C84.4711 35.8716 84.5849 35.7578 84.5849 35.6187V21.8848C84.5849 21.7456 84.4711 21.6318 84.332 21.6318C84.0538 21.6318 83.8261 21.4042 83.8261 21.126C83.8261 20.8478 84.0538 20.6201 84.332 20.6201C85.0275 20.6201 85.5966 21.1892 85.5966 21.8848V35.6187C85.5966 36.3142 85.0275 36.8833 84.332 36.8833C84.1929 36.8833 84.079 36.9971 84.079 37.1363V38.9194H90.6931V37.1363C90.6931 36.9971 90.5793 36.8833 90.4402 36.8833C89.7446 36.8833 89.1755 36.3142 89.1755 35.6187V21.8848C89.1755 21.1892 89.7446 20.6201 90.4402 20.6201C90.7184 20.6201 90.946 20.8478 90.946 21.126C90.946 21.4042 90.7184 21.6318 90.4402 21.6318C90.301 21.6318 90.1872 21.7456 90.1872 21.8848V35.6187C90.1872 35.7578 90.301 35.8716 90.4402 35.8716C91.1357 35.8716 91.7174 36.4407 91.7174 37.1363V39.4252C91.7174 39.7035 91.4898 39.9311 91.2116 39.9311H91.1863Z" fill="#106B3E"/>
<path d="M91.9455 11.7042C91.6673 11.7042 91.4397 11.4892 91.4397 11.211C91.4397 10.819 91.1994 10.4775 90.8706 10.3131L71.7872 1.13185C71.509 0.992739 71.1802 0.992739 70.902 1.13185L51.8313 10.3131C51.4898 10.4775 51.2622 10.819 51.2622 11.211C51.2622 11.4892 51.0219 11.6916 50.7437 11.7042C50.4655 11.7042 50.2379 11.4639 50.2505 11.1857C50.2758 10.4143 50.7184 9.71872 51.4013 9.40256L70.4594 0.208665C71.0158 -0.069555 71.6734 -0.069555 72.2299 0.208665L91.3006 9.38992C91.9708 9.70608 92.4261 10.4143 92.4514 11.1731C92.4514 11.4513 92.2364 11.6916 91.9582 11.6916H91.9455V11.7042Z" fill="#106B3E"/>
<path d="M71.3495 10.1737C69.8067 10.1737 68.5547 8.92168 68.5547 7.37883C68.5547 5.83597 69.8067 4.58398 71.3495 4.58398C72.8924 4.58398 74.1444 5.83597 74.1444 7.37883C74.1444 8.92168 72.8924 10.1737 71.3495 10.1737ZM71.3495 5.59569C70.3631 5.59569 69.5664 6.39241 69.5664 7.37883C69.5664 8.36524 70.3631 9.16196 71.3495 9.16196C72.3359 9.16196 73.1327 8.36524 73.1327 7.37883C73.1327 6.39241 72.3359 5.59569 71.3495 5.59569Z" fill="#106B3E"/>
<path d="M20.6768 54.0947V59.6465H5.80468V69.5359H20.1709V75.0877H5.80468V89.4034H0V54.1074H20.6768V54.0947Z" fill="#106B3E"/>
<path d="M53.8449 89.3907H47.5976L45.1315 82.2834H30.1077L27.6416 89.3907H21.3438L34.1545 54.0947H41.11L53.8702 89.3907H53.8449ZM37.607 60.8985L32.0046 76.8329H43.1967L37.5943 60.8985H37.607Z" fill="#106B3E"/>
<path d="M52.3438 54.0947H78.0664V59.6465H68.1391V89.4034H62.3344V59.6465H52.3438V54.0947Z" fill="#106B3E"/>
<path d="M97.0106 90.0486C91.6991 90.0486 87.2981 88.3035 83.7951 84.8004C80.2921 81.2341 78.5469 76.8838 78.5469 71.7367C78.5469 66.5897 80.2921 62.2267 83.7951 58.7236C87.2602 55.1953 91.6611 53.4248 97.0106 53.4248C100.21 53.4248 103.157 54.1836 105.863 55.6885C108.569 57.2061 110.681 59.2548 112.186 61.8346L107.14 64.7559C106.204 63.0107 104.826 61.6196 103.03 60.5953C101.234 59.5709 99.2237 59.0524 96.9979 59.0524C93.2672 59.0524 90.2068 60.2412 87.8167 62.6313C85.5024 64.9836 84.3389 68.0061 84.3389 71.7114C84.3389 75.4168 85.5024 78.4393 87.8167 80.7915C90.2068 83.1817 93.2672 84.3704 96.9979 84.3704C99.211 84.3704 101.234 83.8519 103.056 82.8276C104.877 81.8032 106.23 80.4121 107.14 78.6669L112.186 81.5376C110.744 84.0922 108.645 86.1662 105.888 87.7344C103.233 89.2519 100.273 89.9981 97.0106 89.9981V90.0486Z" fill="#106B3E"/>
<path d="M145.97 89.3907H139.723L137.257 82.2834H122.233L119.767 89.3907H113.469L126.28 54.0947H133.235L145.995 89.3907H145.97ZM129.732 60.8985L124.13 76.8329H135.322L129.719 60.8985H129.732Z" fill="#106B3E"/>
</svg>
